<?xml version="1.0" encoding="utf-8"?>
<!-- IQVIA SVG ICON -->
<svg version="1.1" id="Layer_1" xmlns="http://www.w3.org/2000/svg"
	xmlns:xlink="http://www.w3.org/1999/xlink" x="0px" y="0px"
	viewBox="0 0 200 200" style="enable-background:new 0 0 200 200;" xml:space="preserve">
<style type="text/css">
	.st0{fill:#004A7C;}
	.st1{fill:#00AAE7;}
	.st2{fill:#668BB3;}
</style>
<g>
	<path class="st0" d="M192.32,144.26h-38.53c-2.69,4.89-5.81,9.38-9.3,13.37h47.83c3.68,0,6.68-3.01,6.68-6.68v0
		C199,147.27,195.99,144.26,192.32,144.26z"/>
	<path class="st0" d="M192.32,118.79h-29.34c-0.92,4.64-2.18,9.1-3.73,13.37h33.06c3.68,0,6.68-3.01,6.68-6.68
		C199,121.8,195.99,118.79,192.32,118.79z"/>
	<path class="st0" d="M192.32,93.32h-27.68c0.13,2.08,0.22,4.18,0.22,6.3c0,2.38-0.1,4.74-0.26,7.06h27.73
		c3.68,0,6.68-3.01,6.68-6.68C199,96.32,195.99,93.32,192.32,93.32z"/>
	<path class="st0" d="M192.32,67.84h-32.79c1.5,4.27,2.71,8.73,3.59,13.37h29.2c3.68,0,6.68-3.01,6.68-6.68v0
		C199,70.85,195.99,67.84,192.32,67.84z"/>
	<path class="st0" d="M192.32,42.37h-47.18c3.4,4,6.45,8.48,9.07,13.37h38.1c3.68,0,6.68-3.01,6.68-6.68S195.99,42.37,192.32,42.37z
		"/>
	<path class="st1" d="M64.94,150.94L64.94,150.94c0-3.68,3.01-6.68,6.68-6.68H45.3c-3.68,0-6.68,3.01-6.68,6.68v0
		c0,3.68,3.01,6.68,6.68,6.68h26.33C67.95,157.63,64.94,154.62,64.94,150.94z"/>
	<path class="st2" d="M153.79,144.26H71.63c-3.68,0-6.68,3.01-6.68,6.68v0c0,3.68,3.01,6.68,6.68,6.68h72.86
		C147.98,153.64,151.09,149.15,153.79,144.26z"/>
	<path class="st1" d="M46.28,126.89c-0.9-4.29,2.4-8.1,6.53-8.1H26.49c-3.68,0-6.68,3.01-6.68,6.68s3.01,6.68,6.68,6.68h26.55
		C49.85,132.16,46.94,130.01,46.28,126.89z"/>
	<path class="st2" d="M162.98,118.79H52.82c-4.14,0-7.43,3.81-6.53,8.1c0.65,3.12,3.56,5.26,6.75,5.26h106.21
		C160.8,127.89,162.05,123.43,162.98,118.79z"/>
	<path class="st1" d="M27.48,101.42c-0.9-4.29,2.4-8.1,6.53-8.1H7.68C4.01,93.32,1,96.32,1,100c0,3.68,3.01,6.68,6.68,6.68h26.55
		C31.04,106.68,28.13,104.54,27.48,101.42z"/>
	<path class="st2" d="M27.48,101.42c0.65,3.12,3.56,5.26,6.75,5.26h130.36c0.16-2.33,0.26-4.68,0.26-7.06c0-2.12-0.09-4.22-0.22-6.3
		H34.01C29.87,93.32,26.58,97.13,27.48,101.42z"/>
	<path class="st1" d="M36.65,74.53c0-3.68,3.01-6.68,6.68-6.68H17c-3.68,0-6.68,3.01-6.68,6.68v0c0,3.68,3.01,6.68,6.68,6.68h26.33
		C39.66,81.21,36.65,78.2,36.65,74.53z"/>
	<path class="st2" d="M159.52,67.84H43.33c-3.68,0-6.68,3.01-6.68,6.68c0,3.68,3.01,6.68,6.68,6.68h119.78
		C162.23,76.58,161.02,72.11,159.52,67.84z"/>
	<path class="st1" d="M85.2,50.47c-0.9-4.29,2.4-8.1,6.53-8.1H65.4c-3.68,0-6.68,3.01-6.68,6.68s3.01,6.68,6.68,6.68h26.55
		C88.76,55.74,85.85,53.6,85.2,50.47z"/>
	<path class="st2" d="M145.14,42.37H91.73c-4.14,0-7.43,3.81-6.53,8.1c0.65,3.12,3.56,5.26,6.75,5.26h62.26
		C151.59,50.86,148.54,46.38,145.14,42.37z"/>
</g>
</svg>