<svg width="24" height="24" viewBox="0 0 24 24" fill="none" 
    xmlns="http://www.w3.org/2000/svg">
    <g id="optimizelyIcon">
        <rect width="24" height="24" rx="4" fill="#0037FF"/>
        <path d="M9.72825 4.9722C8.8861 5.81435 8.32468 6.80764 8.04396 7.9305C6.9211 8.21121 5.92781 8.77264 5.08567 9.61478C3.79006 10.9104 3.12067 12.5731 3.12067 14.2574L7.82803 9.5716C7.82803 9.96028 7.89281 10.4137 7.93599 10.8024L3.25023 15.4882C3.35819 16.1576 3.59572 16.827 3.91962 17.4532L6.9427 14.4301C6.87792 13.6527 7.15863 12.8538 7.78484 12.314C7.95759 12.1412 8.06555 12.0332 8.2383 11.9253C8.5838 12.8106 9.08044 13.6096 9.74984 14.3221C10.4192 14.9915 11.2614 15.553 12.1467 15.8337C12.0387 16.0064 11.9308 16.1792 11.758 16.2871C11.1534 16.8918 10.3545 17.1293 9.64187 17.1293L6.6188 20.1524C7.22341 20.4979 7.9144 20.7138 8.5838 20.8218L13.2912 16.1144C13.6798 16.1792 14.1333 16.2224 14.522 16.2224L9.79303 20.9081C11.4773 20.9081 13.14 20.2387 14.3708 18.9431C15.213 18.101 15.7744 17.0429 16.0983 15.9848C17.1564 15.7041 18.2145 15.1427 19.0566 14.2574C21.6478 11.6877 21.6478 7.49863 19.0566 4.92902C16.4654 2.3594 12.2979 2.3594 9.72825 4.9722ZM16.4438 11.623C15.3209 12.7458 13.5287 12.7458 12.4706 11.623C11.4125 10.5001 11.3478 8.70786 12.4706 7.64979C13.5935 6.52693 15.3857 6.52693 16.4438 7.64979C17.5019 8.77264 17.5019 10.5217 16.4438 11.623Z" fill="white"/>
        <path d="M7.72008 16.3303C7.50415 16.1144 7.3314 15.8337 7.15865 15.553L4.41629 18.2953C4.58904 18.5113 4.80497 18.792 5.02091 19.0079C5.23684 19.2238 5.47437 19.4614 5.75508 19.6125L8.49744 16.8702C8.21673 16.719 8.00079 16.5463 7.72008 16.3303Z" fill="white"/>
    </g>
</svg>
