<?xml version="1.0" encoding="utf-8"?>
<!-- Generator: Adobe Illustrator 26.0.2, SVG Export Plug-In . SVG Version: 6.00 Build 0)  -->
<svg version="1.1" id="Layer_1" xmlns="http://www.w3.org/2000/svg" xmlns:xlink="http://www.w3.org/1999/xlink" x="0px" y="0px" viewBox="0 0 400 400" style="enable-background:new 0 0 400 400;" xml:space="preserve">
    <style type="text/css">
	.st0{fill:#ED601A;}
</style>
    <g>
        <path class="st0" d="M223.12,235.7l-15.35-13.96l-23.68,16.99l35.07,31.85c7.93,7.21,20.21,6.62,27.41-1.31
		c3.25-3.57,5.05-8.23,5.05-13.06v-65.95l-28.5,20.46V235.7z" />
        <path class="st0" d="M251.62,111.67l10.31,16.62l23.2-16.67c-11.03-17.8-20.31-32.72-26.14-42c-5.66-9.11-17.63-11.91-26.75-6.25
		c-5.71,3.55-9.18,9.79-9.18,16.52v76.27l28.5-20.46L251.62,111.67z" />
        <path class="st0" d="M384.94,62.71c-6.48-3.35-14.3-2.77-20.21,1.51l-25.66,18.44l0,0l-11.49,8.31L55.91,285.96l0,0L33,302.38
		v-200.9L150.63,208.2l23.68-16.99L37.01,66.59c-7.95-7.22-20.24-6.63-27.46,1.32C6.3,71.48,4.5,76.14,4.5,80.97v239.16
		c-0.02,10.71,8.64,19.41,19.35,19.43c4.09,0.01,8.07-1.28,11.38-3.67l37.3-26.78l0,0l271.57-194.99l0,0l22.9-16.42v146.62
		c-16.52-27.04-38.32-62.39-58.47-94.97l-23.28,16.71c27.91,45.14,58.8,95.23,74.11,120.81c5.45,9.23,17.35,12.3,26.58,6.85
		c5.95-3.51,9.59-9.92,9.55-16.84V80C395.52,72.71,391.44,66.03,384.94,62.71z" />
    </g>
</svg>