<?xml version="1.0" encoding="utf-8"?>
<!-- Generator: Adobe Illustrator 24.3.0, SVG Export Plug-In . SVG Version: 6.00 Build 0)  -->
<svg version="1.1" xmlns="http://www.w3.org/2000/svg" xmlns:xlink="http://www.w3.org/1999/xlink" x="0px" y="0px"
	 viewBox="0 0 469.4 366.7" enable-background="new 0 0 469.4 366.7" xml:space="preserve">
<g id="icon">
	<g>
		<path fill="#002E6E" d="M63.1,100.5l21.8,74.9c0,0-44.1-17.5-44.1-37.4C40.8,122.8,49.2,108.5,63.1,100.5z"/>
		<path fill="#002E6E" d="M136.9,38.4L152.8,99c0,0-46,1.3-79.1-14.9C76,70.9,86.9,57.5,136.9,38.4z"/>
		<polygon fill="#0089CF" points="189.7,62.6 157.1,71.7 149.2,39.7 181.8,30.6 		"/>
		<polygon fill="#002E6E" points="213.9,77.1 196.2,82 192,64.7 209.6,59.7 		"/>
		<polygon fill="#002E6E" points="385,160.6 333.2,175 320.7,124.1 372.5,109.6 		"/>
		<polygon fill="#0089CF" points="409.8,175.4 392.7,180.2 388.6,163.4 405.6,158.7 		"/>
		<path fill="#0089CF" d="M301.2,131.9l-23.7,6.6l-6-24.4l22.8-6.4c-3.3-11.9-6.2-22.6-8.3-31.1C145.9,122.3,73.7,84,73.7,84
			s12.2,40.4,20.2,73.8c34.5,19.6,132.2,0,132.2,0s29.2,92.9,38.8,128.5c40.9-3.2,74.9-24.4,74.9-24.4S318.1,190.6,301.2,131.9z
			 M225.2,152.6l-4.2-17.3l17.6-4.9l4.2,17.3L225.2,152.6z M253.3,181.8L245,148l34.4-9.6l8.3,33.8L253.3,181.8z M278,208.8
			l-4.6-18.9l19.2-5.3l-2.6-10.5l11.3-3.2l2.7,11.1l-11.3,3.1l4.5,18.2L278,208.8z"/>
		<path fill="#0089CF" d="M229.6,214.2l-27.5,7.7l-8.3-33.8l25.7-7.2l-3-9.8C73.7,206.2,40.8,144.1,40.8,144.1
			s34.5,113.1,53.6,164.6c66.4,44.1,170.5,21.8,170.5,21.8L229.6,214.2z M192.4,239.6l-2.7-11.1l11.3-3.2l2.7,11.1L192.4,239.6z"/>
		<polygon fill="#0089CF" points="407,95.7 371.3,105.7 362.7,70.6 398.4,60.7 		"/>
		<polygon fill="#002E6E" points="428.7,108.7 413.2,113.1 409.5,97.8 425,93.5 		"/>
	</g>
</g>
</svg>
