<?xml version="1.0" encoding="utf-8"?>
<!-- Generator: Adobe Illustrator 24.3.0, SVG Export Plug-In . SVG Version: 6.00 Build 0)  -->
<svg version="1.1" id="Layer_1" xmlns="http://www.w3.org/2000/svg" xmlns:xlink="http://www.w3.org/1999/xlink" x="0px" y="0px"
	 viewBox="0 0 469.44 366.67" style="enable-background:new 0 0 469.44 366.67;" xml:space="preserve">
<style type="text/css">
	.st0{fill:#002E6E;}
	.st1{fill:#0089CF;}
</style>
<g>
	<g>
		<path class="st0" d="M63.06,100.5l21.77,74.88c0,0-44.08-17.52-44.08-37.44C40.75,122.81,49.25,108.47,63.06,100.5z"/>
		<path class="st0" d="M136.87,38.37l15.93,60.62c0,0-46.02,1.34-79.13-14.95C75.98,70.94,86.95,57.49,136.87,38.37z"/>
		<polygon class="st1" points="189.69,62.63 157.06,71.73 149.19,39.66 181.82,30.56 		"/>
		<polygon class="st0" points="213.87,77.08 196.22,82 191.96,64.65 209.62,59.73 		"/>
		<polygon class="st0" points="385.05,160.55 333.22,175.01 320.72,124.07 372.55,109.62 		"/>
		<polygon class="st1" points="409.77,175.43 392.69,180.2 388.58,163.42 405.65,158.66 		"/>
		<path class="st1" d="M301.25,131.85l-23.67,6.6l-5.98-24.37l22.83-6.37c-3.3-11.88-6.18-22.56-8.34-31.11
			c-140.2,45.67-212.42,7.43-212.42,7.43s12.21,40.36,20.18,73.82c34.52,19.65,132.23,0,132.23,0s29.21,92.93,38.77,128.51
			c40.89-3.19,74.88-24.43,74.88-24.43S318.06,190.64,301.25,131.85z M225.17,152.63l-4.24-17.29l17.59-4.9l4.24,17.29
			L225.17,152.63z M253.27,181.84l-8.29-33.8l34.39-9.59l8.29,33.8L253.27,181.84z M278.05,208.83l-4.63-18.89l19.16-5.34
			L290,174.15l11.33-3.16l2.73,11.13l-11.27,3.14l4.47,18.21L278.05,208.83z"/>
		<path class="st1" d="M229.59,214.18l-27.54,7.68l-8.29-33.8l25.73-7.18l-2.96-9.75C73.68,206.18,40.75,144.05,40.75,144.05
			s34.52,113.11,53.64,164.63c66.38,44.08,170.47,21.8,170.47,21.8L229.59,214.18z M192.42,239.6l-2.73-11.13l11.33-3.16l2.73,11.13
			L192.42,239.6z"/>
		<polygon class="st1" points="407.01,95.73 371.34,105.68 362.74,70.62 398.41,60.68 		"/>
		<polygon class="st0" points="428.69,108.73 413.2,113.05 409.46,97.82 424.96,93.5 		"/>
	</g>
</g>
</svg>
